Patient4_TMGait_0pt6_01_right_46_EMG.mot
version=1
nRows=19
nColumns=33
inDegrees=no
endheader
time	1LAddLong	2LGlutMax	3LGlutMed	4LIliopsoas	5LSemiMemb	6LBicFemLong	7LRecFem	8LVastMed	9LVastLat	10LGasMed	11LTibAnt	12lTibPost	13LPeroneusLong	14LSol	15LExtDigLong	16LFlexDigLong	17RAddLong	18RGlutMax	19RGlutMed	20RIliopsoas	21RSemiMemb	22RBicFemLong	23RRecFem	24RVastMed	25RVastLat	26RGasMed	27RTibAnt	28RTibPost	29RPeroneusLong	30RSol	31RExtDigLong	32RFlexDigLong
55.35	-0.016785	0.086212	-0.035858	-0.008545	-0.029602	0.15152	0.06958	0.013885	0.05249	0.056763	-0.31815	-0.000153	-0.065765	0.003967	0.23102	-0.014343	-0.046387	0.035858	-0.1358	-0.042572	0.001068	0.0354	-0.2562	0.31189	0.010223	-0.00412	0.088959	-0.001373	-0.12802	0.035095	-0.000305	-0.007935
55.351	-0.025787	0.07431	0.070648	-0.026398	-0.041504	0.17136	0.042267	0.01297	0.034332	0.072937	-0.052185	0.004883	-0.18601	-0.010834	0.84808	0.001221	-0.043182	-0.029907	-0.11826	-0.04425	-0.001831	0.029297	-0.46478	0.092468	0.023651	-0.000916	0.14832	0.001221	-0.17929	0.007324	-0.003662	-0.008545
55.352	-0.023499	0.076752	0.14313	-0.022888	-0.027161	0.14542	-0.010834	0.015259	0.003204	0.04303	0.23514	0.006866	-0.11581	0.052185	0.73746	0.019073	-0.029755	-0.009766	-0.17578	-0.086517	-0.007782	0.030212	-0.44052	0.044098	0.024109	-0.007019	0.22568	0.00885	-0.01297	-0.028534	-0.007019	-0.00351
55.353	-0.020294	0.082855	0.057526	0.015564	0.025024	0.073547	-0.025635	0.023651	-0.00885	0.024109	0.27451	0.005188	-0.092316	0.14465	0.60516	-0.005035	-0.000916	-0.028229	-0.19394	-0.1831	-0.006561	0.015564	-0.38284	-0.05249	0.010071	-0.006409	0.23056	-0.005646	0.009766	-0.055084	-0.001221	0.000153
55.354	-0.012054	0.085297	0.045776	-0.002899	0.054016	0.029907	-0.016937	0.01358	-0.00473	-0.060425	0.014496	0.007324	0.086365	0.39185	0.059204	0.046539	0.013123	-0.007019	-0.23483	-0.16922	-0.013885	0.009155	-0.30273	-0.07019	-0.033264	-0.010376	0.30655	-0.003052	-0.103	-0.058899	-0.002747	0.003357
55.355	-0.007782	0.099945	0.038147	0	0.050354	0.038757	0.036011	0.014343	0.020294	-0.13779	-0.058746	0.006104	0.28046	0.52734	0.36209	0.011292	0.016632	-0.049896	-0.18951	-0.18143	-0.00412	0.021057	-0.35904	-0.040588	-0.013275	-0.009308	0.37308	-0.001373	-0.12955	-0.086365	-0.005493	-0.000305
55.356	-0.008545	0.076752	-0.002136	0.010529	0.039673	-0.032806	0.044403	0.007782	0.048218	-0.10284	-0.17868	0.005646	0.15839	0.40405	-0.028229	0.008087	0.032806	-0.053253	-0.16708	-0.04715	-0.002899	0.027313	-0.23819	-0.04715	-0.01709	-0.009003	-0.016174	-0.003815	-0.1445	-0.070343	-0.002289	-0.006409
55.357	-0.006866	0.062256	-0.033112	-0.000305	-0.012665	-0.000916	0.098419	0.011597	0.043945	-0.019836	0.10635	-0.000305	-0.058136	0.31265	-0.056458	0.003357	0.052185	-0.039368	-0.17777	0.24063	0.001526	0.01709	-0.10605	-0.041656	-0.012207	-0.000916	-0.35431	-0.003357	-0.040283	-0.034332	0	-0.004883
55.358	0.003815	0.10162	-0.088806	0.002136	-0.12375	0.067749	0.14557	0.00946	-0.094147	-0.017242	0.20966	-0.006866	-0.16953	0.28381	-0.99136	-0.027771	0.054626	-0.001068	-0.24048	0.46845	0.000458	0.014191	-0.18829	0.048218	-0.017548	0.000305	-0.13077	-0.002899	-0.1387	0.015259	-0.002899	-0.000916
55.359	0.031128	0.10849	0.059509	0.005798	-0.1062	0.079193	0.10086	-0.001678	-0.090485	-0.050049	0.039978	0.005341	-0.19409	0.083008	-1.127	-0.022888	0.001678	0.012054	-0.1709	0.47043	-0.013428	0.003052	-0.23636	0.093842	-0.046692	0.014191	0.059967	-0.003662	0.061493	-0.041962	-0.002594	0.000763
55.36	0.032501	0.095978	0.1294	0.006256	0.020599	0.037537	0.07019	0.010986	0.012512	-0.035706	0.017395	0.001526	-0.16068	-0.16327	-0.51117	-0.016785	-0.016327	0.043945	-0.072327	0.32074	-0.027466	-0.005493	-0.13199	0.032806	-0.021362	0.011139	0.092926	-0.008087	0.10193	-0.055389	-0.002136	0.001678
55.361	0.017242	0.063782	0.067139	0.008392	0.033875	0.011139	0.06134	0.014954	0.14908	0.020905	-0.019531	-0.00061	-0.095673	-0.26932	-0.26474	-0.015869	0.035095	0.038147	-0.098877	0.11322	-0.035095	-0.003662	-0.031281	0.002899	-0.031433	0.001221	0.039063	-0.006714	-0.028534	0.006104	-0.002289	-0.009613
55.362	0.001526	0.06897	0.048218	-0.003357	0.037689	-0.26001	0.037384	0.007324	0.24857	0.077209	0.042267	-0.001831	-0.028381	-0.21729	-0.082855	0.000763	0.032806	0.062408	-0.11581	-0.064697	-0.045776	-0.005188	0.030975	-0.075989	-0.038452	-0.008698	-0.095825	-0.00824	-0.077362	0.063477	-0.002899	-0.014954
55.363	-0.005035	0.06958	-0.013123	0.005646	0.019073	-0.31754	0.050964	0.000763	0.084534	0.064545	0.1471	0.002747	0.047455	-0.1387	-0.25864	-0.003967	0.025635	0.048981	-0.051575	-0.089569	-0.046844	-0.000305	0.018616	-0.10727	-0.061035	-0.001678	-0.18051	-0.00351	-0.066833	0.029907	-0.002594	-0.005035
55.364	-0.007477	0.061951	-0.10544	0.002747	0.014648	-0.25391	-0.096283	0.012817	-0.089569	0.014343	0.16083	-0.003815	0.058899	-0.000458	-0.21088	-0.002747	-0.025024	0.069885	-0.12436	-0.13062	-0.041199	-0.012665	0.10468	-0.1033	-0.037231	-0.001221	-0.1474	-0.006561	-0.091095	0.049591	-0.001831	-0.001831
55.365	-0.010681	0.002136	-0.11124	0.003052	0.016022	-0.18875	-0.091248	0.01297	-0.17548	0.017853	0.099792	0.006104	0.004272	0.017395	0.23529	-0.001678	-0.015717	0.01709	-0.15991	-0.083466	-0.040741	-0.003052	0.10269	-0.006409	-0.017395	-0.001984	-0.112	-0.007324	-0.051117	0.005188	-0.003052	-0.016174
55.366	-0.003204	0.027466	-0.11658	0.017548	-0.000305	-0.19989	-0.050049	0.011902	-0.17822	-0.00351	-0.050354	0.005188	-0.01358	0.005493	0.13855	-0.032349	0.021057	0.020142	-0.084686	0.006256	-0.022125	0.018005	0.10086	0.047455	-0.007935	0.006104	0.028229	-0.006256	-0.037079	-0.083008	-0.005798	0.000916
55.367	0.020905	0.015564	0.090637	0.006866	0.014191	-0.31662	-0.019989	0.007477	-0.12909	-0.032349	-0.14313	0.003967	-0.01709	0.061798	-0.15228	-0.014954	0.05722	0.05722	-0.10529	0.080109	0.01297	0.021515	0.061493	0.079346	-0.004425	0.003662	0.16937	-0.001678	0.021973	-0.067444	-0.001831	-0.008545
55.368	0.028992	-0.031586	0.035706	0.021667	-0.02121	-0.14877	0.017548	0.007782	-0.009155	-0.028687	-0.18738	0.003204	-0.007324	0.085754	-0.21881	-0.019684	0.06485	-0.019989	-0.1001	0.009308	0.025482	0.024414	0.085449	0.045319	-0.000153	-0.008545	0.04715	-0.004425	0.16205	-0.022278	0.001221	-0.007172
